<?xml version="1.0" encoding="UTF-8"?>
<svg version="1.1" xmlns="http://www.w3.org/2000/svg" width="115" height="144">
<path d="M0 0 C37.95 0 75.9 0 115 0 C115 47.52 115 95.04 115 144 C77.05 144 39.1 144 0 144 C0 96.48 0 48.96 0 0 Z " fill="#F7FDF9" transform="translate(0,0)"/>
<path d="M0 0 C3.97679621 1.76435325 7.13263512 3.93024998 9.875 7.3125 C12.52446989 9.41649079 13.56031815 9.13317918 16.875 9 C21.8014416 8.80439129 24.20573735 9.65743528 28 13 C30.97447528 16.3764314 32.81013307 18.64380763 33.4375 23.125 C32.83504939 28.46099112 30.7930331 31.28267615 27 35 C20.65078071 39.82008794 13.53160752 42.56583027 6 45 C6.89138672 45.01401855 6.89138672 45.01401855 7.80078125 45.02832031 C10.53464645 45.08252993 13.26689199 45.16607278 16 45.25 C16.93457031 45.26417969 17.86914062 45.27835938 18.83203125 45.29296875 C26.35141977 45.55588443 31.73629796 47.22585326 37.5 52.125 C39.76623828 56.46862337 40.07350667 60.21999397 39 65 C36.41058998 69.59239483 33.19494519 72.99168958 28.0625 74.5 C27.051875 74.665 26.04125 74.83 25 75 C24.7215625 76.794375 24.7215625 76.794375 24.4375 78.625 C23.20213297 83.7017273 20.20297234 86.1352382 16 89 C12.23014087 90.88492957 8.09599874 90.63156867 4 90 C-0.26833747 87.85792694 -3.00743146 84.64621871 -4.9375 80.3125 C-6.52987801 75.31204468 -6.25745362 70.18721372 -6 65 C-6.66 65 -7.32 65 -8 65 C-11.47476814 78.74394897 -11.38103541 92.86394926 -4.125 105.375 C2.83327425 116.02507257 11.40046852 123.11795148 24 126 C29.64520726 126.6859382 35.31908681 126.86680157 41 127 C40.67 127.99 40.34 128.98 40 130 C25.9574346 130.52441116 13.73220629 129.52701591 2 121 C1.29101562 120.48566406 0.58203125 119.97132813 -0.1484375 119.44140625 C-9.46740336 111.99694502 -15.46014295 100.56734896 -18 89 C-18.21367629 86.06491375 -18.18510994 83.12965837 -18.1875 80.1875 C-18.19974609 79.40568359 -18.21199219 78.62386719 -18.22460938 77.81835938 C-18.23712576 72.82432178 -17.59922322 68.73445926 -16 64 C-16.65226562 64.48210937 -17.30453125 64.96421875 -17.9765625 65.4609375 C-24.84654806 70.42597131 -30.21715858 73.94101872 -39 73 C-43.97666433 70.56045866 -47.18164146 67.25988458 -49 62 C-49.63077654 57.80427293 -49.91021487 54.31070942 -47.4375 50.75 C-46.963125 50.1725 -46.48875 49.595 -46 49 C-46.20236738 46.30176826 -46.73029748 44.47594563 -48.0625 42.125 C-49.68286041 38.45218308 -49.70444762 34.9132157 -48.3125 31.1328125 C-46.07029636 26.77920043 -43.56082479 24.02703324 -39 22 C-32.8049893 21.1725469 -28.42658365 22.99682132 -23.375 26.5 C-18.2996951 30.48516117 -14.0479779 34.98932249 -10 40 C-10.49371094 38.80761719 -10.98742188 37.61523438 -11.49609375 36.38671875 C-12.14328245 34.82033451 -12.79041494 33.25392705 -13.4375 31.6875 C-13.76298828 30.90181641 -14.08847656 30.11613281 -14.42382812 29.30664062 C-14.89272461 28.1706543 -14.89272461 28.1706543 -15.37109375 27.01171875 C-15.65911865 26.31522217 -15.94714355 25.61872559 -16.24389648 24.90112305 C-18.36516621 19.56746875 -18.58598318 14.68892007 -18 9 C-14.2270685 1.1746606 -8.39202563 -1.51056461 0 0 Z " fill="#03933B" transform="translate(50,13)"/>
<path d="M0 0 C37.95 0 75.9 0 115 0 C115 17.82 115 35.64 115 54 C114.67 54 114.34 54 114 54 C113.34 49.05 112.68 44.1 112 39 C111.34 39 110.68 39 110 39 C109.59910156 38.17757812 109.19820313 37.35515625 108.78515625 36.5078125 C100.61699083 20.46783233 89.98192913 11.30005292 73.04296875 4.9453125 C67.88966229 3.3444137 63.00856188 2.87549273 57.62744141 2.88647461 C55.76619125 2.88658791 55.76619125 2.88658791 53.86734009 2.88670349 C52.52874714 2.89180887 51.19015461 2.89702485 49.8515625 2.90234375 C48.47008312 2.90421094 47.08860308 2.90563342 45.7071228 2.90663147 C42.08711897 2.91043298 38.46715583 2.92024284 34.84716797 2.93133545 C31.14681549 2.94160065 27.44645639 2.94614 23.74609375 2.95117188 C16.49737736 2.96186742 9.2486944 2.97891515 2 3 C2 3.99 2 4.98 2 6 C6.23149236 6.2891225 10.46325746 6.57375568 14.6953125 6.85449219 C16.13061378 6.95030755 17.56583817 7.04728291 19.00097656 7.14550781 C27.01036357 7.69287178 34.96629892 8.12577223 43 8 C43 9.32 43 10.64 43 12 C42.34 12 41.68 12 41 12 C41 12.66 41 13.32 41 14 C40.05125 14.61875 39.1025 15.2375 38.125 15.875 C34.99324384 18.00459419 34.28724937 18.63381267 33 22 C31.42618578 31.92331284 35.15169099 40.63129115 39.73046875 49.26171875 C40.14941406 50.16535156 40.56835938 51.06898437 41 52 C40.505 52.99 40.505 52.99 40 54 C39.46632812 53.35933594 38.93265625 52.71867187 38.3828125 52.05859375 C32.14600998 44.81829187 25.63852103 37.32468762 15.75 35.8125 C12.25700017 35.70282968 10.85682286 36.06508052 7.5625 37.5625 C3.69630257 41.24010243 2.19402246 44.1891237 1.625 49.5 C2.03189692 53.29770458 3.27935144 55.63351368 5 59 C4.73202391 62.12638771 3.79836077 63.30245884 2 66 C1.23909993 70.56540042 1.52108258 74.75266726 3.6875 78.875 C6.03757625 82.05077872 7.35239811 83.55792483 11 85 C19.74090158 85.98953603 25.87932818 82.46460792 32.53125 77.20703125 C33.0159375 76.80871094 33.500625 76.41039063 34 76 C34.33 76.66 34.66 77.32 35 78 C34.69835938 78.85335937 34.39671875 79.70671875 34.0859375 80.5859375 C30.70669656 91.20988205 32.29918934 104.0776735 37 114 C42.47121834 124.52272678 49.36956913 132.85739318 60.24609375 138.078125 C62 139 62 139 63 141 C65.3140622 141.73075648 67.64828869 142.40138258 70 143 C70 143.33 70 143.66 70 144 C46.9 144 23.8 144 0 144 C0 96.48 0 48.96 0 0 Z " fill="#FBFEFC" transform="translate(0,0)"/>
<path d="M0 0 C7.87649443 -0.06995383 15.75291412 -0.12303908 23.62964249 -0.15543652 C27.28836401 -0.17099698 30.94687077 -0.19205566 34.60546875 -0.22631836 C38.14572975 -0.25925991 41.68578606 -0.27692504 45.22618866 -0.28463173 C47.21338155 -0.29275518 49.20049374 -0.31611689 51.18756104 -0.33988953 C68.13178061 -0.3429849 83.50107458 4.66928057 95.8203125 16.625 C108.69187418 30.64992742 111.68885603 45.26775114 111.13183594 63.64941406 C110.86360774 68.43182351 109.81689236 72.5885303 108 77 C107.5978125 77.98097656 107.195625 78.96195312 106.78125 79.97265625 C100.96501458 92.75221796 91.12534894 102.23803001 79.11328125 109.21484375 C76.62659796 110.13873163 75.45523388 109.89230848 73 109 C72.67 107.35 72.34 105.7 72 104 C73.6396875 103.01 73.6396875 103.01 75.3125 102 C87.91669076 94.05241968 96.03153448 86.79667029 102 73 C102.36867188 72.15308594 102.73734375 71.30617188 103.1171875 70.43359375 C104.42273364 65.355828 104.36861182 60.40984115 104.375 55.1875 C104.41173828 53.62418945 104.41173828 53.62418945 104.44921875 52.02929688 C104.47550941 45.04912544 103.28440465 40.12419894 100 34 C99.3899163 32.64848877 98.78492026 31.2946565 98.1875 29.9375 C92.41309212 18.63583788 81.78526727 11.09664202 70 7 C61.93050317 4.85471953 53.99011778 4.66077685 45.6796875 4.5859375 C44.32633336 4.56718422 42.97299041 4.54760787 41.61965942 4.5272522 C38.09186456 4.4763634 34.56403197 4.43650918 31.03607178 4.39910889 C27.42239381 4.35879475 23.80886689 4.30782886 20.1953125 4.2578125 C13.13031946 4.16156697 6.06523118 4.07700133 -1 4 C-0.67 2.68 -0.34 1.36 0 0 Z " fill="#1C8740" transform="translate(2,2)"/>
<path d="M0 0 C4.45608266 3.98702133 6.64009232 7.13445308 7.203125 13.18164062 C7.30540987 15.68761998 7.32893826 18.17949161 7.3125 20.6875 C7.30404053 22.02651367 7.30404053 22.02651367 7.29541016 23.39257812 C7.17399275 29.99479976 6.53462031 35.84586508 4 42 C3.5978125 42.98097656 3.195625 43.96195313 2.78125 44.97265625 C-3.03498542 57.75221796 -12.87465106 67.23803001 -24.88671875 74.21484375 C-27.37340204 75.13873163 -28.54476612 74.89230848 -31 74 C-31.495 71.525 -31.495 71.525 -32 69 C-30.3603125 68.01 -30.3603125 68.01 -28.6875 67 C-16.08330924 59.05241968 -7.96846552 51.79667029 -2 38 C-1.62746094 37.15695313 -1.25492188 36.31390625 -0.87109375 35.4453125 C0.42898522 30.30329611 0.24808802 25.28072443 0.1875 20 C0.18685547 18.93265625 0.18621094 17.8653125 0.18554688 16.765625 C0.15724765 11.70949718 -0.10608268 6.98625442 -1 2 C-0.67 1.34 -0.34 0.68 0 0 Z " fill="#10893B" transform="translate(106,37)"/>
<path d="M0 0 C2.12183308 3.4947839 2.12183308 3.4947839 1.57421875 5.765625 C1.38472656 6.50296875 1.19523437 7.2403125 1 8 C-0.09504152 23.16211335 3.6285891 34.04558468 12.3125 46.25 C23.53323773 57.73168512 36.69781908 59.64121498 52 60 C51.67 60.99 51.34 61.98 51 63 C36.9574346 63.52441116 24.73220629 62.52701591 13 54 C12.29101562 53.48566406 11.58203125 52.97132813 10.8515625 52.44140625 C1.55509485 45.01491772 -4.50395286 33.55959508 -7 22 C-7.07766084 20.55901569 -7.10796367 19.11491371 -7.09765625 17.671875 C-7.09282227 16.47304687 -7.09282227 16.47304687 -7.08789062 15.25 C-7.07951172 14.425 -7.07113281 13.6 -7.0625 12.75 C-7.05798828 11.90953125 -7.05347656 11.0690625 -7.04882812 10.203125 C-7.03707961 8.13538599 -7.01914522 6.06768376 -7 4 C-6.34 4 -5.68 4 -5 4 C-4.34 8.95 -3.68 13.9 -3 19 C-2.3842409 14.24398637 -2.3842409 14.24398637 -1.77368164 9.48730469 C-1.3507399 6.26827212 -0.89389308 3.12459925 0 0 Z " fill="#17883F" transform="translate(39,80)"/>
<path d="M0 0 C4.43888167 1.35632495 6.70741409 2.92429172 9 7 C9.97803076 11.50980851 9.97064564 15.27853141 7.671875 19.35546875 C3.95133195 23.95586995 0.82236172 26.04941033 -5 27 C-5.185625 28.19625 -5.37125 29.3925 -5.5625 30.625 C-6.79786703 35.7017273 -9.79702766 38.1352382 -14 41 C-17.72022229 42.86011115 -21.95030238 42.58206663 -26 42 C-28.52047733 40.58655585 -29.98182867 39.12439088 -32 37 C-29 37 -29 37 -27.3125 38 C-22.89279322 39.91122455 -17.53506571 39.51168857 -13 38 C-13 37.34 -13 36.68 -13 36 C-11.35 35.34 -9.7 34.68 -8 34 C-8.0825 32.906875 -8.165 31.81375 -8.25 30.6875 C-8 27 -8 27 -6.25 25.0625 C-4 24 -4 24 0 24 C0 23.34 0 22.68 0 22 C0.99 21.67 1.98 21.34 3 21 C3.495 19.515 3.495 19.515 4 18 C4.66 17.67 5.32 17.34 6 17 C6 13.37 6 9.74 6 6 C4.02 5.01 2.04 4.02 0 3 C0 2.01 0 1.02 0 0 Z " fill="#1B8240" transform="translate(80,61)"/>
<path d="M0 0 C20.46 0 40.92 0 62 0 C62 0.33 62 0.66 62 1 C48.47 1.33 34.94 1.66 21 2 C26.445 2.495 26.445 2.495 32 3 C32 3.33 32 3.66 32 4 C21.11 4 10.22 4 -1 4 C-0.67 2.68 -0.34 1.36 0 0 Z " fill="#469C62" transform="translate(2,2)"/>
<path d="M0 0 C3.63426866 0.7833868 6.54317801 2.22845307 9.8046875 3.96484375 C15.5187225 6.6591841 20.65413891 7.37194802 26.875 7.625 C27.65875 7.66367188 28.4425 7.70234375 29.25 7.7421875 C31.16631367 7.83566622 33.08312319 7.91888495 35 8 C34.67 8.99 34.34 9.98 34 11 C12.6224515 11.79833169 12.6224515 11.79833169 3.63671875 6.64453125 C2 5 2 5 2 1 C1.34 0.67 0.68 0.34 0 0 Z " fill="#1E803E" transform="translate(56,132)"/>
<path d="M0 0 C14.52 0 29.04 0 44 0 C44 0.99 44 1.98 44 3 C39.92896481 3.0250466 35.85796054 3.04302089 31.78686523 3.05493164 C30.40697446 3.05990624 29.02708879 3.06668832 27.6472168 3.07543945 C4.82455687 3.21637124 4.82455687 3.21637124 0 0 Z " fill="#117E33" transform="translate(20,3)"/>
<path d="M0 0 C0.33 0 0.66 0 1 0 C3.29612756 14.59681093 3.29612756 14.59681093 3 22 C2.34 21.67 1.68 21.34 1 21 C0.80664062 21.54269531 0.61328125 22.08539063 0.4140625 22.64453125 C0.15367188 23.35996094 -0.10671875 24.07539062 -0.375 24.8125 C-0.63023438 25.52019531 -0.88546875 26.22789063 -1.1484375 26.95703125 C-2 29 -2 29 -4 32 C-4.66 32 -5.32 32 -6 32 C-6.33 33.32 -6.66 34.64 -7 36 C-7.66 36 -8.32 36 -9 36 C-9.33 37.32 -9.66 38.64 -10 40 C-10.99 39.34 -11.98 38.68 -13 38 C-12.278125 37.21625 -11.55625 36.4325 -10.8125 35.625 C-4.09768167 27.57484848 -0.82350663 17.95934022 -0.375 7.625 C-0.33632812 6.88894531 -0.29765625 6.15289062 -0.2578125 5.39453125 C-0.16442002 3.59672594 -0.0811629 1.79839892 0 0 Z " fill="#1D8842" transform="translate(107,53)"/>
<path d="M0 0 C3.51214852 1.55187958 5.7588569 2.71196796 8.25 5.6875 C11.88694817 8.74584278 13.99815478 8.16047584 18.56640625 7.9296875 C22.31066688 8.03786839 24.24518557 9.57313967 27 12 C30.13628512 15.56010743 31.90292652 17.66523963 32.25 22.4375 C32 26 32 26 30.5 27.9375 C29.7575 28.4634375 29.7575 28.4634375 29 29 C28.06980303 26.20940908 28.03083239 23.89564953 28.1875 21 C28.24074002 17.81743 28.1947548 17.24668941 26.125 14.625 C25.42375 14.08875 24.7225 13.5525 24 13 C23.34 12.34 22.68 11.68 22 11 C18.82031914 10.77524851 15.68399781 10.6821949 12.49804688 10.69726562 C10.50390625 10.63671875 10.50390625 10.63671875 7 10 C5.02740776 7.58210971 4 6.14342653 4 3 C2.68 2.67 1.36 2.34 0 2 C0 1.34 0 0.68 0 0 Z " fill="#1D8340" transform="translate(51,14)"/>
<path d="M0 0 C0.66 0 1.32 0 2 0 C2.02578125 0.68964844 2.0515625 1.37929687 2.078125 2.08984375 C2.56692006 10.18828911 4.50451932 16.25677898 9 23 C5.74275395 22.43840585 3.96209599 21.70956113 2 19 C1.3125 15.8125 1.3125 15.8125 1 13 C-0.94090826 14.94090826 -0.39919435 18.47293902 -0.5625 21.0625 C-0.64628906 22.35285156 -0.73007812 23.64320312 -0.81640625 24.97265625 C-0.87699219 25.97167969 -0.93757813 26.97070312 -1 28 C-1.33 28 -1.66 28 -2 28 C-4.20192273 18.39322422 -3.47956658 9.17528569 0 0 Z " fill="#D2F6E0" transform="translate(42,78)"/>
<path d="M0 0 C8.39823719 0.08487232 16.79627439 0.17993088 25.1942482 0.28752708 C29.09495837 0.33719351 32.99564526 0.38352261 36.89648438 0.421875 C40.67027407 0.4591069 44.4438536 0.50556184 48.21746063 0.55806351 C49.64770522 0.57640847 51.0779945 0.59158739 52.50830841 0.60334396 C61.1706493 0.67700479 69.49190497 1.26684174 78 3 C78 3.99 78 4.98 78 6 C77.16176697 5.78806 76.32353394 5.57612 75.4598999 5.35775757 C66.54623988 3.25540949 58.30987444 2.55798063 49.140625 2.6015625 C47.77536871 2.59953461 46.41011348 2.59661727 45.04486084 2.59286499 C42.21795079 2.58849312 39.39132915 2.59471574 36.56445312 2.60888672 C32.9395025 2.62617485 29.31520884 2.61598368 25.69028091 2.59816933 C22.88676943 2.58735853 20.08341568 2.59076182 17.2798996 2.5985527 C15.2933865 2.60152102 13.30686724 2.59242614 11.32037354 2.5831604 C10.12442566 2.59261688 8.92847778 2.60207336 7.69628906 2.61181641 C6.64153381 2.61420319 5.58677856 2.61658997 4.50006104 2.61904907 C3.26253082 2.80761978 3.26253082 2.80761978 2 3 C1.34 3.99 0.68 4.98 0 6 C0 4.02 0 2.04 0 0 Z " fill="#E5FEEE" transform="translate(0,0)"/>
<path d="M0 0 C-0.928125 0.53625 -1.85625 1.0725 -2.8125 1.625 C-6.3518003 4.26212571 -7.54268943 5.87095337 -9 10 C-9.57794925 15.39419299 -8.42088233 18.26349109 -6 23 C-6.26797609 26.12638771 -7.20163923 27.30245884 -9 30 C-9.45394552 32.27912938 -9.45394552 32.27912938 -9.625 34.6875 C-9.69976562 35.49574219 -9.77453125 36.30398437 -9.8515625 37.13671875 C-9.90054687 37.75160156 -9.94953125 38.36648437 -10 39 C-10.33 39 -10.66 39 -11 39 C-11 28.11 -11 17.22 -11 6 C-10.34 5.67 -9.68 5.34 -9 5 C-8.505 4.175 -8.01 3.35 -7.5 2.5 C-5.23197924 -1.28003461 -3.96649886 -1.18994966 0 0 Z " fill="#D2F9DE" transform="translate(11,36)"/>
<path d="M0 0 C19.8 0 39.6 0 60 0 C60 0.33 60 0.66 60 1 C59.19780029 1.02505615 58.39560059 1.0501123 57.5690918 1.07592773 C53.94172926 1.19182043 50.31463083 1.31457751 46.6875 1.4375 C45.42486328 1.47681641 44.16222656 1.51613281 42.86132812 1.55664062 C41.04858398 1.61948242 41.04858398 1.61948242 39.19921875 1.68359375 C37.52605591 1.73858032 37.52605591 1.73858032 35.8190918 1.79467773 C32.92126429 1.88931209 32.92126429 1.88931209 30 3 C27.71262395 2.94820695 25.42663022 2.82385111 23.14453125 2.66015625 C22.48289474 2.61434921 21.82125824 2.56854218 21.13957214 2.52134705 C19.03010765 2.37400854 16.92134999 2.21836421 14.8125 2.0625 C13.38089813 1.96104025 11.94925774 1.86012236 10.51757812 1.75976562 C7.01125035 1.51279222 3.50550872 1.25836722 0 1 C0 0.67 0 0.34 0 0 Z " fill="#B7E5C9" transform="translate(2,6)"/>
<path d="M0 0 C0 3 0 3 -2.3125 5.6875 C-5 8 -5 8 -8 8 C-8 8.99 -8 9.98 -8 11 C-7.34 11.33 -6.68 11.66 -6 12 C-6 11.34 -6 10.68 -6 10 C-4.68 10.33 -3.36 10.66 -2 11 C-3.23944276 11.86941494 -4.49207059 12.72005457 -5.75 13.5625 C-6.44609375 14.03816406 -7.1421875 14.51382813 -7.859375 15.00390625 C-10 16 -10 16 -12.265625 15.65234375 C-12.83796875 15.43707031 -13.4103125 15.22179687 -14 15 C-14.33 13.35 -14.66 11.7 -15 10 C-14.50371094 9.69707031 -14.00742188 9.39414063 -13.49609375 9.08203125 C-8.85920786 6.22247164 -4.40177917 3.20963065 0 0 Z " fill="#14863B" transform="translate(89,96)"/>
<path d="M0 0 C5.1474434 4.26502453 7.93986459 9.66263108 10 16 C9.67 16.99 9.34 17.98 9 19 C7.68 17.68 6.36 16.36 5 15 C4.01 15.495 4.01 15.495 3 16 C-0.39366878 10.62669111 -0.32712342 6.13053511 0 0 Z " fill="#1C8A41" transform="translate(101,24)"/>
<path d="M0 0 C4.3924631 -0.07482575 8.78457672 -0.12891683 13.17749023 -0.16479492 C14.66811598 -0.17977042 16.15869851 -0.20015819 17.64916992 -0.22631836 C37.80330951 -0.57089131 37.80330951 -0.57089131 45 6 C42.69915328 5.55467483 40.40887063 5.10516728 38.13867188 4.52124023 C31.89772864 2.96606543 25.85031749 2.60945913 19.4375 2.4375 C12.89303275 2.23711566 6.4846755 1.93299136 0 1 C0 0.67 0 0.34 0 0 Z " fill="#DEFBEA" transform="translate(35,7)"/>
<path d="M0 0 C0.66 0.33 1.32 0.66 2 1 C1.67902344 1.55816406 1.35804687 2.11632812 1.02734375 2.69140625 C-1.91335974 9.29960306 -0.14854609 16.33372205 2.3125 22.8125 C3.65594623 26.06017031 5.08275505 29.15598299 6.73046875 32.26171875 C7.14941406 33.16535156 7.56835938 34.06898437 8 35 C7.67 35.66 7.34 36.32 7 37 C4.03 33.7 1.06 30.4 -2 27 C-1.01 26.67 -0.02 26.34 1 26 C0.505 24.783125 0.01 23.56625 -0.5 22.3125 C-2.61271761 16.00438582 -3.65222046 7.86784177 -0.98046875 1.61328125 C-0.65691406 1.08089844 -0.33335938 0.54851563 0 0 Z " fill="#CAF7D9" transform="translate(33,17)"/>
<path d="M0 0 C1.125 3.75 1.125 3.75 0 6 C-0.23333287 12.08516056 -0.23333287 12.08516056 1 18 C1.66 18 2.32 18 3 18 C2.67 20.31 2.34 22.62 2 25 C1.01 25.33 0.02 25.66 -1 26 C-1.33 28.97 -1.66 31.94 -2 35 C-2.33 35 -2.66 35 -3 35 C-3.50390625 26.265625 -3.50390625 26.265625 0 22 C-0.20236738 19.30176826 -0.73029748 17.47594563 -2.0625 15.125 C-3.46285352 11.95086535 -3.295984 9.43341436 -3 6 C-1.5 2.5625 -1.5 2.5625 0 0 Z " fill="#328C51" transform="translate(4,40)"/>
<path d="M0 0 C0.66 0 1.32 0 2 0 C2.05429959 1.74965358 2.09292823 3.49979787 2.125 5.25 C2.14820312 6.22453125 2.17140625 7.1990625 2.1953125 8.203125 C1.91862622 12.16527249 0.9095194 14.08479611 -1.875 16.88671875 C-2.57625 17.48097656 -3.2775 18.07523438 -4 18.6875 C-4.70125 19.28949219 -5.4025 19.89148438 -6.125 20.51171875 C-8 22 -8 22 -10 23 C-10.99 22.34 -11.98 21.68 -13 21 C-12.48050781 20.72027344 -11.96101563 20.44054687 -11.42578125 20.15234375 C-6.46626887 17.30131168 -2.27606418 14.4176739 0 9 C0.37503544 5.94614 0.31188507 3.05647364 0 0 Z " fill="#DDFAE7" transform="translate(82,31)"/>
<path d="M0 0 C0.99 0.33 1.98 0.66 3 1 C3 1.99 3 2.98 3 4 C2.01 4 1.02 4 0 4 C0.33 4.99 0.66 5.98 1 7 C-2 9 -2 9 -4.1875 8.625 C-4.785625 8.41875 -5.38375 8.2125 -6 8 C-6 8.66 -6 9.32 -6 10 C-6.99 9.67 -7.98 9.34 -9 9 C-8.67 8.01 -8.34 7.02 -8 6 C-7.01 6 -6.02 6 -5 6 C-4.67 5.01 -4.34 4.02 -4 3 C-2.125 1.25 -2.125 1.25 0 0 Z " fill="#09903B" transform="translate(89,98)"/>
<path d="M0 0 C0.33 0 0.66 0 1 0 C1.19335938 0.80824219 1.38671875 1.61648437 1.5859375 2.44921875 C1.84632812 3.51785156 2.10671875 4.58648437 2.375 5.6875 C2.63023438 6.74324219 2.88546875 7.79898438 3.1484375 8.88671875 C3.91905489 11.70406766 4.85498543 14.31668325 6 17 C5.34 17.33 4.68 17.66 4 18 C3.34 17.01 2.68 16.02 2 15 C1.34 16.32 0.68 17.64 0 19 C-1.29479052 12.84974502 -2.0095763 6.02872891 0 0 Z " fill="#258D48" transform="translate(39,101)"/>
<path d="M0 0 C1.32 0.33 2.64 0.66 4 1 C1.00209817 4.3142272 -1.93477732 6.22399543 -5.9375 8.1875 C-6.95714844 8.69667969 -7.97679688 9.20585938 -9.02734375 9.73046875 C-11.76110069 10.89797336 -14.04134021 11.73757974 -17 12 C-17.66 11.34 -18.32 10.68 -19 10 C-15.7 9.34 -12.4 8.68 -9 8 C-9 7.34 -9 6.68 -9 6 C-8.030625 5.71125 -7.06125 5.4225 -6.0625 5.125 C-2.89335797 4.35785318 -2.89335797 4.35785318 -2 2 C-1.34 2 -0.68 2 0 2 C0 1.34 0 0.68 0 0 Z " fill="#1B853F" transform="translate(74,45)"/>
<path d="M0 0 C0.66 1.32 1.32 2.64 2 4 C-0.03454262 6.18524948 -1.85582936 7.91497629 -4.4375 9.4375 C-7.42514365 11.25923393 -9.60322121 13.46626243 -12 16 C-12.99 15.67 -13.98 15.34 -15 15 C-14.33613281 14.41992188 -13.67226562 13.83984375 -12.98828125 13.2421875 C-8.26794615 9.06624141 -3.84575655 4.99948351 0 0 Z " fill="#D3F5DE" transform="translate(103,91)"/>
<path d="M0 0 C4.43888167 1.35632495 6.70741409 2.92429172 9 7 C9.48767612 10.39205837 9.63494394 13.62507276 9 17 C8.01 17.99 7.02 18.98 6 20 C6 15.38 6 10.76 6 6 C4.02 5.01 2.04 4.02 0 3 C0 2.01 0 1.02 0 0 Z " fill="#298849" transform="translate(80,61)"/>
<path d="M0 0 C0.99 1.051875 0.99 1.051875 2 2.125 C4.83739299 4.97865313 7.97717315 7.31041802 11.23046875 9.66796875 C13 11 13 11 15 13 C14.01 13.495 14.01 13.495 13 14 C12.0925 13.360625 11.185 12.72125 10.25 12.0625 C7.30718683 9.91775207 7.30718683 9.91775207 4.75 9.5625 C4.1725 9.376875 3.595 9.19125 3 9 C1.51738586 6.11280405 0.70227415 3.16023369 0 0 Z " fill="#DFF9E9" transform="translate(42,124)"/>
<path d="M0 0 C0 1.98 0 3.96 0 6 C-0.66 5.67 -1.32 5.34 -2 5 C-2 4.01 -2 3.02 -2 2 C-5.3 4.31 -8.6 6.62 -12 9 C-12.33 8.34 -12.66 7.68 -13 7 C-12.01 6.34 -11.02 5.68 -10 5 C-9.505 3.9790625 -9.505 3.9790625 -9 2.9375 C-7.11879515 -0.7073344 -3.65099389 -0.09867551 0 0 Z " fill="#1C8842" transform="translate(36,75)"/>
<path d="M0 0 C0.33 0 0.66 0 1 0 C3.29612756 14.59681093 3.29612756 14.59681093 3 22 C2.01 21.67 1.02 21.34 0 21 C0 14.07 0 7.14 0 0 Z " fill="#22934A" transform="translate(107,53)"/>
<path d="M0 0 C0.99 0.33 1.98 0.66 3 1 C2.38125 1.45375 1.7625 1.9075 1.125 2.375 C-1.95957005 6.18535123 -2.30873376 10.23390116 -3 15 C-3.33 15 -3.66 15 -4 15 C-4.65867457 11.64141186 -5.1465164 8.42743722 -5 5 C-2.5625 1.875 -2.5625 1.875 0 0 Z " fill="#178740" transform="translate(38,15)"/>
<path d="M0 0 C0.66 0 1.32 0 2 0 C3.52491998 3.04983996 3.23562548 5.6423369 3 9 C1.5 10.9375 1.5 10.9375 0 12 C-1.53166168 7.91556885 -0.63081652 4.20544343 0 0 Z " fill="#2E9050" transform="translate(80,31)"/>
<path d="M0 0 C0.99 1.32 1.98 2.64 3 4 C6.9822186 3.43111163 9.60567493 2.10998585 13 0 C13.66 0 14.32 0 15 0 C14 3 14 3 10.75 4.6875 C7.4484643 5.84303749 5.41923168 6.48846167 2 6 C1.34 5.34 0.68 4.68 0 4 C0 2.68 0 1.36 0 0 Z " fill="#D8F7E3" transform="translate(73,107)"/>
<path d="M0 0 C2.1851113 1.01451596 3.90959357 1.91629035 5.6875 3.5625 C9.20952362 5.75186603 12.92387378 5.74741953 17 6 C15 8 15 8 11.75 8.375 C7.35016944 7.93501694 5.36626145 6.8182654 2 4 C0.625 1.75 0.625 1.75 0 0 Z " fill="#2C894C" transform="translate(3,78)"/>
<path d="M0 0 C1.485 0.99 1.485 0.99 3 2 C2.34 7.61 1.68 13.22 1 19 C0.67 19 0.34 19 0 19 C0 12.73 0 6.46 0 0 Z " fill="#E7FEEF" transform="translate(0,56)"/>
<path d="M0 0 C0.33 0 0.66 0 1 0 C1 6.93 1 13.86 1 21 C-0.98 21.99 -0.98 21.99 -3 23 C-2.67 21.35 -2.34 19.7 -2 18 C-1.67 18 -1.34 18 -1 18 C-0.505 9.09 -0.505 9.09 0 0 Z " fill="#E3FAED" transform="translate(114,54)"/>
<path d="M0 0 C0.66 0 1.32 0 2 0 C1.67 2.31 1.34 4.62 1 7 C0.01 7.33 -0.98 7.66 -2 8 C-2.33 10.97 -2.66 13.94 -3 17 C-3.33 17 -3.66 17 -4 17 C-4.47513389 8.76434583 -4.47513389 8.76434583 -2.5625 5.6875 C-2.046875 5.130625 -1.53125 4.57375 -1 4 C-0.29485154 1.85266073 -0.29485154 1.85266073 0 0 Z " fill="#268A48" transform="translate(5,58)"/>
<path d="M0 0 C-0.33 0.33 -0.66 0.66 -1 1 C1.97 1.33 4.94 1.66 8 2 C8 2.33 8 2.66 8 3 C2.06 3 -3.88 3 -10 3 C-7.28464405 0.28464405 -3.67870689 -1.83935344 0 0 Z " fill="#A0E4B9" transform="translate(64,56)"/>
<path d="M0 0 C1.33804687 0.17982422 1.33804687 0.17982422 2.703125 0.36328125 C3.37859375 0.47027344 4.0540625 0.57726563 4.75 0.6875 C2.75 2.6875 2.75 2.6875 -0.0703125 2.8828125 C-1.16085937 2.85960937 -2.25140625 2.83640625 -3.375 2.8125 C-4.47070312 2.79445312 -5.56640625 2.77640625 -6.6953125 2.7578125 C-7.53835938 2.73460937 -8.38140625 2.71140625 -9.25 2.6875 C-6.03037108 -0.23875152 -4.27288159 -0.61844339 0 0 Z " fill="#339352" transform="translate(16.25,35.3125)"/>
<path d="M0 0 C4.5503959 3.91839647 7.24859663 8.2112707 9 14 C8.67 14.66 8.34 15.32 8 16 C7.67 14.68 7.34 13.36 7 12 C6.34 12 5.68 12 5 12 C2.28317615 8.26436721 1.13273539 4.44380808 0 0 Z " fill="#CCF3DA" transform="translate(96,26)"/>
<path d="M0 0 C1.94484317 2.91726476 3.43417937 5.86835873 5 9 C5.99 10.485 5.99 10.485 7 12 C4.80297535 11.62120265 3.16124078 11.09789619 1.25 9.9375 C-0.79404368 6.76923229 -0.182379 3.70837308 0 0 Z " fill="#D6F7E2" transform="translate(44,89)"/>
<path d="M0 0 C3.59905908 0.55550695 4.99909799 1.74887248 7.25 4.5625 C8.03117187 5.52349609 8.03117187 5.52349609 8.828125 6.50390625 C9.21484375 6.99761719 9.6015625 7.49132813 10 8 C6.45595664 8 5.89732095 7.39010515 3.3125 5.125 C2.68988281 4.59132813 2.06726563 4.05765625 1.42578125 3.5078125 C0 2 0 2 0 0 Z " fill="#228845" transform="translate(28,43)"/>
<path d="M0 0 C1 2 1 2 0.0625 5.125 C-0.288125 6.07375 -0.63875 7.0225 -1 8 C-1.33 7.01 -1.66 6.02 -2 5 C-3.98 5.66 -5.96 6.32 -8 7 C-5.42215154 4.35247996 -3.08351902 2.05567935 0 0 Z " fill="#BFF3D0" transform="translate(34,76)"/>
<path d="M0 0 C-1.423125 0.8971875 -1.423125 0.8971875 -2.875 1.8125 C-6.13964197 3.81562526 -6.13964197 3.81562526 -8 7 C-8.66 7 -9.32 7 -10 7 C-10.33 7.66 -10.66 8.32 -11 9 C-11 8.01 -11 7.02 -11 6 C-10.34 5.67 -9.68 5.34 -9 5 C-8.505 4.175 -8.01 3.35 -7.5 2.5 C-5.23197924 -1.28003461 -3.96649886 -1.18994966 0 0 Z " fill="#E1FCEB" transform="translate(11,36)"/>
<path d="M0 0 C0.99 0.33 1.98 0.66 3 1 C0.61042731 4.24299151 -1.2047869 6.50902342 -5 8 C-4.625 5.5625 -4.625 5.5625 -4 3 C-3.34 2.67 -2.68 2.34 -2 2 C-1.34 2.33 -0.68 2.66 0 3 C0 2.01 0 1.02 0 0 Z " fill="#DAF9E4" transform="translate(93,89)"/>
<path d="M0 0 C1.32 0.33 2.64 0.66 4 1 C1.51047079 3.66735273 -0.63408134 5.55746343 -4 7 C-4.66 6.34 -5.32 5.68 -6 5 C-5.01 4.67 -4.02 4.34 -3 4 C-2.67 3.34 -2.34 2.68 -2 2 C-1.34 2 -0.68 2 0 2 C0 1.34 0 0.68 0 0 Z " fill="#238A47" transform="translate(74,45)"/>
<path d="M0 0 C4.8333472 -0.08333357 9.23692563 0.04738513 14 1 C14 1.99 14 2.98 14 4 C9.38 3.01 4.76 2.02 0 1 C0 0.67 0 0.34 0 0 Z " fill="#CFF5DE" transform="translate(64,2)"/>
<path d="M0 0 C3.96 0 7.92 0 12 0 C11.67 0.99 11.34 1.98 11 3 C10.29875 2.855625 9.5975 2.71125 8.875 2.5625 C5.92443859 1.98521625 2.96729849 1.48304859 0 1 C0 0.67 0 0.34 0 0 Z " fill="#468E59" transform="translate(79,140)"/>
<path d="M0 0 C1.98 0 3.96 0 6 0 C6 0.99 6 1.98 6 3 C5 4 4 5 3 6 C1.5 4.6875 1.5 4.6875 0 3 C0 2.01 0 1.02 0 0 Z " fill="#258846" transform="translate(44,124)"/>
<path d="M0 0 C2.18975773 3.28463659 2.99806563 6.20696275 4 10 C3.34 10 2.68 10 2 10 C2 9.34 2 8.68 2 8 C1.01 8 0.02 8 -1 8 C-0.67 5.36 -0.34 2.72 0 0 Z " fill="#D3F5DE" transform="translate(33,106)"/>
<path d="M0 0 C0.66 0 1.32 0 2 0 C2.99 3.3 3.98 6.6 5 10 C4.01 10.495 4.01 10.495 3 11 C0 4.5 0 4.5 0 0 Z " fill="#DDFBE9" transform="translate(41,106)"/>
<path d="M0 0 C0.66 0 1.32 0 2 0 C2 2.31 2 4.62 2 7 C1.34 7 0.68 7 0 7 C-0.66 7.99 -1.32 8.98 -2 10 C-1.54177532 6.53058454 -1.10868317 3.32604951 0 0 Z " fill="#9BE1B1" transform="translate(42,78)"/>
<path d="M0 0 C0 1.66666667 0 3.33333333 0 5 C1.65 5.33 3.3 5.66 5 6 C4.34 6.66 3.68 7.32 3 8 C0.875 7.625 0.875 7.625 -1 7 C-1.625 4.625 -1.625 4.625 -2 2 C-1.34 1.34 -0.68 0.68 0 0 Z " fill="#2E844B" transform="translate(76,104)"/>
<path d="M0 0 C0 0.66 0 1.32 0 2 C-1.7015625 2.433125 -1.7015625 2.433125 -3.4375 2.875 C-4.613125 3.24625 -5.78875 3.6175 -7 4 C-7.33 4.66 -7.66 5.32 -8 6 C-7.67 4.35 -7.34 2.7 -7 1 C-2.25 0 -2.25 0 0 0 Z " fill="#C4F1D5" transform="translate(82,86)"/>
<path d="M0 0 C1.18771723 3.42943519 0.80226223 5.37784675 -0.4375 8.75 C-0.86869141 9.94882813 -0.86869141 9.94882813 -1.30859375 11.171875 C-1.65083984 12.07679687 -1.65083984 12.07679687 -2 13 C-2.33 13 -2.66 13 -3 13 C-3.38281159 7.76824163 -2.21854707 4.62197306 0 0 Z " fill="#1A7F3D" transform="translate(111,69)"/>
<path d="M0 0 C0.66 0.33 1.32 0.66 2 1 C2.75 3.375 2.75 3.375 3 6 C2.01 7.485 2.01 7.485 1 9 C-1.09230769 4.56923077 -1.09230769 4.56923077 -0.625 1.6875 C-0.41875 1.130625 -0.2125 0.57375 0 0 Z " fill="#128239" transform="translate(99,22)"/>
<path d="M0 0 C2.64 1.65 5.28 3.3 8 5 C7.34 5.66 6.68 6.32 6 7 C3 5.1875 3 5.1875 0 3 C0 2.01 0 1.02 0 0 Z " fill="#CFF2DD" transform="translate(49,131)"/>
<path d="M0 0 C0.33 1.32 0.66 2.64 1 4 C-0.65 4.33 -2.3 4.66 -4 5 C-4.33 6.32 -4.66 7.64 -5 9 C-5.33 8.34 -5.66 7.68 -6 7 C-4.77065985 3.31197956 -3.06140622 2.27643027 0 0 Z " fill="#049238" transform="translate(103,85)"/>
<path d="M0 0 C3.91402949 1.26941497 5.79072873 2.51167694 8 6 C7.236875 5.690625 6.47375 5.38125 5.6875 5.0625 C3.81210323 4.32106407 1.91315348 3.63771783 0 3 C0 2.01 0 1.02 0 0 Z " fill="#1D8141" transform="translate(80,61)"/>
<path d="M0 0 C0.66 0 1.32 0 2 0 C2.66 2.31 3.32 4.62 4 7 C3.01 7.495 3.01 7.495 2 8 C0.23537317 4.91190305 0 3.76687864 0 0 Z " fill="#278B47" transform="translate(107,35)"/>
<path d="M0 0 C0.99 1.32 1.98 2.64 3 4 C2.67 4.66 2.34 5.32 2 6 C1.01 6 0.02 6 -1 6 C-1.33 4.35 -1.66 2.7 -2 1 C-1.34 0.67 -0.68 0.34 0 0 Z " fill="#0C8C39" transform="translate(41,115)"/>
<path d="M0 0 C2.6875 1.9375 2.6875 1.9375 5 4 C2.03 3.67 -0.94 3.34 -4 3 C-3 1 -3 1 0 0 Z " fill="#E5FCF0" transform="translate(16,32)"/>
<path d="M0 0 C5.75 2.625 5.75 2.625 8 6 C7.01 6 6.02 6 5 6 C4.67 5.01 4.34 4.02 4 3 C1.98491642 2.26676204 1.98491642 2.26676204 0 2 C0 1.34 0 0.68 0 0 Z " fill="#278648" transform="translate(51,14)"/>
</svg>
