<svg xmlns="http://www.w3.org/2000/svg" xmlns:xlink="http://www.w3.org/1999/xlink" version="1.1" id="Layer_1" x="0px" y="0px" width="100%" viewBox="0 0 1024 1024" enable-background="new 0 0 1024 1024" xml:space="preserve">
<path fill="#0d7d34" opacity="1.000000" stroke="none" d=" M474.531342,1.000000   C470.944672,4.131457 465.997437,2.635935 461.584503,3.108913   C427.255493,6.788334 393.473206,13.056576 360.530029,23.425329   C328.053650,33.647163 296.845947,46.872536 267.007690,63.374779   C232.915924,82.229446 201.418106,104.650673 172.257401,130.451874   C128.731644,168.963196 93.217499,213.825226 64.882812,264.519928   C41.987568,305.482727 25.134481,348.780579 14.412187,394.401642   C9.245390,416.385284 5.348221,438.640259 3.215349,461.193817   C2.790476,465.686523 3.729506,470.482758 1.279939,474.899170   C1.000000,317.072906 1.000000,159.145828 1.000000,1.000000   C158.687500,1.000000 316.375092,1.000000 474.531342,1.000000  z"/>
<path fill="#0d7d34" opacity="1.000000" stroke="none" d=" M551.468628,1025.000000   C551.957764,1023.384644 553.455200,1022.965942 555.234985,1022.872803   C597.719177,1020.651001 638.946228,1011.810730 679.094727,998.164612   C728.964539,981.214355 775.163696,957.036621 817.285095,925.292786   C842.709473,906.132385 866.956116,885.575867 888.537781,862.115479   C911.654968,836.986023 932.431274,810.026917 950.219116,780.809021   C967.501343,752.421631 982.364868,722.841125 993.795410,691.637451   C1005.206665,660.486633 1013.592834,628.501099 1018.631409,595.666626   C1020.723022,582.036072 1023.100037,568.448792 1023.093384,554.593384   C1023.092651,553.101624 1023.134644,551.566833 1024.666260,550.201721   C1025.000000,708.260315 1025.000000,866.520691 1025.000000,1025.000000   C867.312500,1025.000000 709.624939,1025.000000 551.468628,1025.000000  z"/>
<path fill="#0d7d34" opacity="1.000000" stroke="none" d=" M1.000000,550.468628   C4.536779,554.637329 3.304611,560.283813 3.695995,565.371460   C6.440391,601.045959 14.622107,635.540649 25.125813,669.600830   C36.510834,706.518860 52.514263,741.374451 72.166878,774.543640   C85.829025,797.602356 101.276344,819.433289 118.580879,839.977173   C128.974106,852.315979 139.225998,864.796753 150.924347,875.876648   C177.994736,901.515930 206.350922,925.567993 238.021210,945.546692   C271.396576,966.601074 306.456787,984.104004 343.742615,996.988892   C374.769775,1007.711060 406.460052,1015.785645 439.135773,1019.833923   C449.846802,1021.161011 460.501984,1022.763916 471.311371,1022.964539   C472.853424,1022.993164 474.268097,1023.405579 475.721039,1024.732178   C326.979095,1025.000000 177.958206,1025.000000 28.678814,1024.856201   C28.970709,1024.387817 29.521101,1024.063110 30.918358,1023.238770   C26.883629,1023.299805 25.371639,1021.373779 24.332563,1018.472595   C23.374733,1015.798279 20.671082,1013.822998 18.161409,1014.119629   C12.252719,1014.818054 5.931374,1014.662292 1.000000,1019.000000   C1.000000,862.979126 1.000000,706.958191 1.000000,550.468628  z"/>
<path fill="#0d7d34" opacity="1.000000" stroke="none" d=" M1025.000000,474.531342   C1022.120117,471.042969 1023.426880,466.279053 1022.981262,462.006439   C1019.469666,428.343597 1013.333130,395.251129 1003.402527,362.867828   C990.591797,321.092346 972.652405,281.672729 949.763611,244.456299   C933.679504,218.303940 915.325378,193.867371 894.760864,171.113022   C842.976624,113.814293 781.798828,69.671852 710.481628,39.688911   C678.277710,26.149866 645.027466,16.150553 610.750793,9.704471   C591.985352,6.175439 573.064575,3.366859 553.947266,2.294216   C553.157410,2.249901 552.388733,1.829863 551.305054,1.292435   C694.687561,1.000000 838.375122,1.000000 982.269165,1.202300   C981.889526,1.968044 980.803223,2.524480 980.795166,3.096037   C980.718628,8.562763 980.731567,14.036014 980.965393,19.496820   C981.006348,20.454758 981.998169,21.651852 982.881592,22.250479   C991.671997,28.207106 997.903625,36.606140 1004.482117,44.673344   C1006.309021,46.913692 1008.491516,47.721012 1011.440796,47.675060   C1015.977173,47.604382 1020.671875,46.686134 1025.000000,49.000000   C1025.000000,190.687561 1025.000000,332.375122 1025.000000,474.531342  z"/>
<path fill="#0d7d34" opacity="1.000000" stroke="none" d=" M501.942871,855.104858   C468.519318,830.773376 441.851288,800.937012 422.763184,764.606445   C403.810181,728.533142 393.462402,690.009460 391.960419,649.283203   C390.455933,608.490173 400.187408,569.696533 415.291229,531.995056   C411.688873,531.064087 410.301392,532.777161 408.765594,533.909912   C394.694000,544.289124 381.134918,555.381775 366.229706,564.600220   C345.898254,577.174683 324.251556,585.501465 299.889130,585.174316   C259.713531,584.634827 225.412582,555.129272 220.209015,515.313721   C217.131348,491.764587 225.642807,471.449463 241.509125,454.111603   C249.504333,445.374786 249.637848,444.798279 244.148300,434.582611   C224.233231,397.522034 235.802216,350.667999 271.166565,327.869843   C293.782654,313.290039 317.999176,313.129456 342.444427,323.118774   C361.325958,330.834473 376.402344,343.917175 390.470154,358.331024   C407.827026,376.114929 423.538696,395.341705 439.768555,414.115845   C441.391663,415.993317 443.208832,417.702972 445.699402,420.280762   C444.333221,414.244843 441.732605,409.900665 439.434357,405.446838   C428.971405,385.170288 418.273712,365.014099 410.410980,343.509552   C403.624847,324.949524 398.463348,305.985046 398.135864,286.153015   C397.469025,245.771683 418.034515,210.702255 462.548126,202.361115   C492.169922,196.810440 522.839355,208.450180 542.210083,237.542450   C550.171753,249.499786 550.218079,249.468948 564.363953,245.947403   C605.126892,235.799652 646.050781,258.319366 658.481140,298.382416   C665.522339,321.076263 660.460938,342.170227 647.271606,361.491730   C636.280518,377.592834 621.407532,389.568665 605.469910,400.417206   C585.044983,414.320221 562.327271,423.406738 539.481201,432.268677   C530.842712,435.619537 522.143127,438.859497 512.924133,443.763336   C517.366577,445.131409 520.487549,443.817749 523.489319,443.138245   C545.645325,438.122681 567.987244,434.625854 590.768860,435.083862   C613.518372,435.541260 635.959717,438.167114 657.318848,446.642090   C681.342407,456.174164 697.463074,473.004120 703.744202,498.400543   C710.008057,523.726868 703.314209,546.217957 687.455078,566.184937   C675.883301,580.753967 660.476685,589.786804 642.569397,594.440857   C636.574646,595.998901 633.601013,599.250366 633.126038,605.489380   C631.882141,621.830322 627.589600,637.148926 618.217102,650.961426   C590.035278,692.493652 529.895996,698.557129 494.781189,663.244385   C480.031494,648.411560 472.695862,629.821106 467.708618,610.038757   C462.687073,590.120422 460.756012,569.741272 458.749542,549.374451   C458.592285,547.778198 458.829163,545.949341 456.857422,545.025269   C454.578827,545.310791 454.304108,547.436401 453.574921,548.957764   C443.331940,570.328064 437.275482,592.932068 434.367645,616.369324   C428.830933,660.995789 436.176514,703.611755 455.147095,744.260925   C473.939911,784.529236 501.212463,817.715698 537.984924,842.947693   C567.236328,863.019043 599.250610,876.557861 634.060974,883.112793   C651.737244,886.441284 669.651611,888.250610 687.700806,885.836792   C689.016479,885.660767 690.362000,885.675537 691.694275,885.661438   C697.703003,885.597900 701.445740,888.504517 701.935852,893.587891   C702.414429,898.551514 698.160156,903.492310 692.667297,904.171509   C633.462341,911.493042 578.050964,899.977417 526.237732,870.614197   C517.969971,865.928650 510.017975,860.753357 501.942871,855.104858  z"/>
<path fill="#0d7d34" opacity="1.000000" stroke="none" d=" M314.009399,160.072372   C295.356720,159.751251 277.202057,159.424286 259.046997,159.118927   C250.728577,158.979004 245.268356,154.201416 245.371094,147.099747   C245.479691,139.592133 250.798264,134.636719 259.244873,134.609116   C285.073364,134.524719 310.909485,134.965744 336.729553,134.489883   C404.872925,133.234024 473.021667,133.544495 541.163086,133.854080   C587.154907,134.063034 630.451111,146.350327 670.611206,168.495880   C735.285400,204.159332 781.183655,257.047760 809.798706,324.842194   C824.613037,359.939941 832.401550,396.682861 833.517212,434.967316   C834.528503,469.667725 831.895996,503.862671 822.506897,537.282593   C800.753479,614.712097 755.689392,674.931946 687.772400,718.055359   C676.087952,725.474304 664.047546,732.245911 651.741089,738.556519   C647.557617,740.701721 643.185181,742.413025 638.362000,741.884094   C629.657654,740.929810 623.587341,735.247314 622.001221,726.780029   C620.481018,718.665222 625.156677,709.706421 633.340332,705.881226   C646.938416,699.525208 660.222778,692.620361 672.968567,684.676270   C696.410095,670.065979 716.276184,651.405151 733.765503,630.231812   C754.404541,605.245300 770.592712,577.568054 781.510986,546.978333   C790.162964,522.738159 795.686584,497.792969 797.885376,472.097809   C799.979248,447.629517 800.387024,423.213623 796.854980,398.848450   C788.683533,342.479218 765.334229,293.314514 726.849609,251.300201   C693.474121,214.863708 653.415833,188.823135 606.259949,174.018463   C580.609741,165.965561 554.107971,164.071579 527.330811,163.912659   C494.688995,163.718948 462.039429,163.077698 429.417694,161.933502   C410.427582,161.267426 391.444672,161.501114 372.462463,161.063843   C353.146698,160.618896 333.825836,160.395676 314.009399,160.072372  z"/>
</svg>
